<svg width="19" height="24" viewBox="0 0 19 24" fill="none" xmlns="http://www.w3.org/2000/svg">
<path fill-rule="evenodd" clip-rule="evenodd" d="M18.7936 19.18L13.3472 15.0375C13.7355 14.5266 13.9573 13.9047 13.9906 13.2605C14.0128 12.6164 13.8464 11.9833 13.5025 11.4391L16.1092 9.08468L18.838 6.53031C19.0154 6.36372 19.0265 6.07497 18.8491 5.89727L18.4719 5.51967C16.5307 3.55391 13.9129 2.41 11.162 2.32115L11.1731 0.821841C11.1842 0.721888 11.1731 0.621934 11.1509 0.521981C11.1177 0.422027 11.0733 0.333179 11.0067 0.255437C10.9402 0.177695 10.8625 0.122166 10.7627 0.0777419C10.674 0.033318 10.5741 0.0111058 10.4743 0.0111058C10.3745 0.0111058 10.2746 0.033318 10.1859 0.0777419C10.0972 0.122166 10.0084 0.177695 9.94187 0.255437C9.87531 0.333179 9.81985 0.422027 9.79767 0.510874C9.76439 0.610828 9.7533 0.710782 9.77548 0.810736L9.76439 2.35447C9.10994 2.4211 8.45549 2.54327 7.82322 2.73207L7.83432 0.810736C7.84541 0.710782 7.83432 0.610828 7.81213 0.510874C7.77885 0.410921 7.73448 0.322073 7.66793 0.244331C7.60138 0.16659 7.52373 0.11106 7.4239 0.0666356C7.33516 0.0222118 7.23533 0 7.1355 0C7.03566 0 6.93583 0.0222118 6.84709 0.0666356C6.75835 0.11106 6.66961 0.16659 6.60306 0.244331C6.53651 0.322073 6.48104 0.410921 6.45886 0.499769C6.42558 0.599722 6.41449 0.699676 6.43667 0.79963L6.4034 3.25405C4.16273 4.25359 2.3214 5.99722 1.20107 8.1851C0.0807364 10.373 -0.27422 12.8829 0.213845 15.2929C0.70191 17.7029 1.99972 19.8797 3.88543 21.4567C5.77113 23.0338 8.1449 23.9223 10.5963 23.9667L18.5274 24C18.7714 24 18.9711 23.8001 18.9711 23.5558V19.5465C18.9711 19.4021 18.9045 19.2689 18.7936 19.18ZM10.7516 22.0342C8.79935 22.0231 6.90256 21.3679 5.36071 20.1795C3.81887 18.9801 2.70963 17.3031 2.21048 15.4151C1.71132 13.5271 1.85552 11.5169 2.59871 9.71772C3.35299 7.91856 4.67299 6.40814 6.37012 5.43082L6.35903 8.35169C6.34794 8.45164 6.35903 8.5516 6.38121 8.65155C6.41449 8.7515 6.45886 8.84035 6.52541 8.91809C6.59197 8.99584 6.66961 9.05136 6.76945 9.09579C6.85819 9.14021 6.95802 9.16242 7.05785 9.16242C7.15768 9.16242 7.25751 9.14021 7.34625 9.09579C7.43499 9.05136 7.52373 8.99584 7.59028 8.91809C7.65684 8.84035 7.7123 8.7515 7.73448 8.66266C7.76776 8.5627 7.77885 8.46275 7.75667 8.36279L7.76776 4.77557C8.74389 4.42018 9.77548 4.25359 10.8182 4.25359C12.7372 4.25359 14.6007 4.88663 16.1203 6.04165C16.2313 6.13049 16.2423 6.28598 16.1425 6.38593L11.994 10.1953C11.6168 10.0398 11.2064 9.95095 10.796 9.95095C10.3412 9.95095 9.88641 10.0398 9.4649 10.2286C9.04339 10.4174 8.67734 10.695 8.37784 11.0393C8.07835 11.3836 7.8565 11.7945 7.72339 12.2277C7.59028 12.6719 7.55701 13.1273 7.62356 13.5826C7.69011 14.0379 7.84541 14.4711 8.08944 14.8598C8.33347 15.2485 8.66624 15.5706 9.04339 15.826C9.43162 16.0703 9.86422 16.2369 10.319 16.3036C10.7738 16.3702 11.2397 16.3369 11.6723 16.2036L16.9744 20.2351C17.0299 20.2795 17.0632 20.3461 17.0632 20.4128L17.0521 21.8343C17.0521 21.9565 16.9523 22.0565 16.8302 22.0565L10.7516 22.0342ZM12.0494 13.1495C12.0494 13.3938 11.9718 13.6381 11.8387 13.8491C11.6945 14.0602 11.5059 14.2156 11.273 14.3156C11.04 14.4155 10.7849 14.4378 10.552 14.3822C10.319 14.3267 10.0861 14.2156 9.90859 14.0379C9.73111 13.8603 9.6091 13.6381 9.56473 13.3938C9.52036 13.1495 9.54254 12.894 9.64237 12.6719C9.74221 12.4387 9.8975 12.2499 10.1083 12.1055C10.319 11.9722 10.563 11.8945 10.8071 11.8945C11.1398 11.8945 11.4615 12.0278 11.6945 12.2721C11.9163 12.4942 12.0494 12.8052 12.0494 13.1495Z" fill="#C9B8FF"/>
</svg>
