<svg width="56" height="55" viewBox="0 0 56 55" fill="none" xmlns="http://www.w3.org/2000/svg">
<path d="M15.3726 43.8106C14.6263 44.1248 13.8338 43.4746 14.0019 42.686L18.7869 20.2442C18.9432 19.5113 19.8253 19.2041 20.4059 19.6805L36.8582 33.1796C37.4388 33.656 37.3035 34.5759 36.6098 34.868L15.3726 43.8106Z" stroke="#6F3FF5" stroke-width="4"/>
<path d="M25.0475 4.63344C25.571 3.75634 26.9177 4.13131 26.9074 5.15131L26.8142 14.4008C26.8076 15.0587 26.1771 15.5323 25.5427 15.3556L20.8888 14.0598C20.2544 13.8832 19.9626 13.1528 20.3003 12.5871L25.0475 4.63344Z" fill="#FFCC00"/>
<path d="M50.3606 23.8397C51.3649 23.6409 51.9889 24.896 51.2205 25.5694L44.2502 31.6778C43.7561 32.1108 42.9832 31.9577 42.6905 31.3688L40.5501 27.0637C40.2573 26.4748 40.6041 25.7709 41.2499 25.643L50.3606 23.8397Z" fill="#FFCC00"/>
<path d="M39.442 11.9062C40.3004 11.3494 41.3458 12.2803 40.8843 13.1904L36.6983 21.4448C36.401 22.0309 35.6257 22.1769 35.1343 21.7393L31.5352 18.5345C31.0437 18.0969 31.104 17.3143 31.6568 16.9557L39.442 11.9062Z" fill="#FFCC00"/>
</svg>
